# xmcd CD database file
#
# Track frame offsets:
#	150
#	38262
#	73413
#	108319
#	130518
#	177057
#	216636
#
# Disc length: 3350 seconds
#
# Revision: 0
# Processed by: cddbd v1.5.1PL0 Copyright (c) Steve Scherf et al.
# Submitted via: CDex 1.51
#
DISCID=5e0d1407
DTITLE=Piano Brothers - La La Lullabies
DYEAR=1900
DGENRE=New Age
TTITLE0=Unknown Track 1
TTITLE1=Unknown Track 2
TTITLE2=Unknown Track 3
TTITLE3=Unknown Track 4
TTITLE4=Unknown Track 5
TTITLE5=Unknown Track 6
TTITLE6=Unknown Track 7
EXTD=
EXTT0=
EXTT1=
EXTT2=
EXTT3=
EXTT4=
EXTT5=
EXTT6=
PLAYORDER=
